<?xml version="1.0" encoding="UTF-8" standalone="no"?>
<svg
   width="512"
   height="512"
   version="1.1"
   id="svg20"
   sodipodi:docname="Icon.svg"
   inkscape:version="1.1.2 (0a00cf5339, 2022-02-04)"
   xmlns:inkscape="http://www.inkscape.org/namespaces/inkscape"
   xmlns:sodipodi="http://sodipodi.sourceforge.net/DTD/sodipodi-0.dtd"
   xmlns="http://www.w3.org/2000/svg"
   xmlns:svg="http://www.w3.org/2000/svg">
  <defs
     id="defs6" />
  <sodipodi:namedview
     id="namedview4"
     pagecolor="#505050"
     bordercolor="#ffffff"
     borderopacity="1"
     inkscape:pageshadow="0"
     inkscape:pageopacity="0"
     inkscape:pagecheckerboard="1"
     showgrid="true"
     inkscape:zoom="1.2305315"
     inkscape:cx="426.23858"
     inkscape:cy="277.11603"
     inkscape:window-width="1920"
     inkscape:window-height="1080"
     inkscape:window-x="1920"
     inkscape:window-y="0"
     inkscape:window-maximized="1"
     inkscape:current-layer="svg20">
    <inkscape:grid
       type="xygrid"
       id="grid847"
       spacingx="16"
       spacingy="16"
       empspacing="4"
       empcolor="#ff3f3f"
       empopacity="0.25098039"
       color="#0098ff"
       opacity="0.44705882" />
  </sodipodi:namedview>
  <path
     id="path16"
     style="fill:#f6edfd;fill-opacity:1;"
     class="st3"
     d="m 176,32 -64,78.51758 c 0,0 0,241.48242 0,353.48242 0,7.54247 8.45753,16 16,16 80,0 160,0 256,0 7.54247,0 16,-8.45753 16,-16 0,-112 0,-352 0,-352 L 336,32 Z m 80,32 c 17.67311,0 32,14.326888 32,32 0,17.67311 -14.32689,32 -32,32 -17.67311,0 -32,-14.32689 -32,-32 0,-17.673112 14.32689,-32 32,-32 z"
     sodipodi:nodetypes="ccsssscccsssss" />
</svg>
