<?xml version="1.0" encoding="UTF-8" standalone="no"?>
<svg
   width="512"
   height="512"
   version="1.1"
   id="svg20"
   sodipodi:docname="Logo.svg"
   inkscape:version="1.1.2 (0a00cf5339, 2022-02-04)"
   xmlns:inkscape="http://www.inkscape.org/namespaces/inkscape"
   xmlns:sodipodi="http://sodipodi.sourceforge.net/DTD/sodipodi-0.dtd"
   xmlns="http://www.w3.org/2000/svg"
   xmlns:svg="http://www.w3.org/2000/svg">
  <defs
     id="defs6" />
  <sodipodi:namedview
     id="namedview4"
     pagecolor="#505050"
     bordercolor="#ffffff"
     borderopacity="1"
     inkscape:pageshadow="0"
     inkscape:pageopacity="0"
     inkscape:pagecheckerboard="1"
     showgrid="true"
     inkscape:zoom="1.2305315"
     inkscape:cx="292.96283"
     inkscape:cy="245.4224"
     inkscape:window-width="1920"
     inkscape:window-height="1080"
     inkscape:window-x="1920"
     inkscape:window-y="0"
     inkscape:window-maximized="1"
     inkscape:current-layer="svg20">
    <inkscape:grid
       type="xygrid"
       id="grid847"
       spacingx="16"
       spacingy="16"
       empspacing="4"
       empcolor="#ff3f3f"
       empopacity="0.25098039"
       color="#0098ff"
       opacity="0.44705882" />
  </sodipodi:namedview>
  <animate
     attributeName="opacity"
     values="0.2;0.1;0.1;0.1;0.2;0.1;0.2;0.2"
     dur="2s"
     repeatCount="indefinite" />
  <path
     class="st2"
     d="m 378.10413,228.43841 c -2.13207,-1.84395 -4.32176,-3.74552 -6.45383,-5.58948 1.44059,0 2.82355,-0.0576 4.26414,-0.0576 0.9796,0 0.9796,-1.49821 0,-1.49821 -1.44059,0 -2.88117,0.0576 -4.32176,0.0576 2.07445,-2.18969 3.86077,-4.55225 5.41661,-7.20293 0.51861,-0.80673 -0.80673,-1.55583 -1.26772,-0.7491 -1.38296,2.36256 -2.99642,4.55225 -4.84037,6.51145 -0.11525,-1.90158 -0.2305,-3.74553 -0.34574,-5.6471 -0.0576,-0.9796 -1.55584,-0.9796 -1.49821,0 0.11524,2.18969 0.28811,4.437 0.40336,6.6267 -1.9592,-1.72871 -3.97602,-3.45741 -5.93522,-5.18612 -0.69148,-0.63385 -1.78632,0.40337 -1.03722,1.03723 1.78633,1.55583 3.51503,3.05404 5.30136,4.60987 -3.22691,0.0576 -6.45383,0.11525 -9.68074,0.17287 -0.9796,0 -0.9796,1.49821 0,1.49821 3.28454,-0.0576 6.56907,-0.11524 9.85361,-0.17287 -0.86435,0.74911 -1.78633,1.49821 -2.76593,2.1897 -0.7491,0.57623 0,1.84395 0.74911,1.26771 1.32534,-0.9796 2.53543,-2.01682 3.74553,-3.11166 0.17287,3.28453 0.40336,6.56907 0.57623,9.85361 0.0576,0.9796 1.55583,0.9796 1.49821,0 -0.17287,-2.9388 -0.34574,-5.81997 -0.51861,-8.75877 1.9592,1.72871 3.9184,3.39979 5.87759,5.12849 0.69149,0.69148 1.72871,-0.34574 0.9796,-0.9796 z"
     id="path14"
     style="fill:#fafafa;stroke-width:0.576235;fill-opacity:1" />
  <path
     id="path16"
     style="fill:#5a0e94;fill-opacity:1;stroke-width:0.576235"
     class="st3"
     d="m 176,32 -64,80 V 464 L 255.94141,479.84961 400,464 V 112 L 336,32 h -80 z m 80,32 c 17.67311,0 32,14.326888 32,32 0,17.67311 -14.32689,32 -32,32 -17.67311,0 -32,-14.32689 -32,-32 0,-17.673112 14.32689,-32 32,-32 z"
     sodipodi:nodetypes="cccccccccsssss" />
  <g
     id="g116"
     transform="matrix(0.57623472,0,0,0.57623472,-107.66174,-41.066567)"
     style="fill:#fafafa;fill-opacity:1">
    <path
       class="st2"
       d="m 784.9,330.3 c -4.3,-0.5 -10.4,3.8 -13.9,5.9 -6.7,4 -12.8,9.1 -18,14.9 1.9,-6 3.5,-12 5,-18.1 5.1,-8 16.7,-9.8 19.9,-19.3 1.3,0.2 2.7,-0.2 3.8,-1.3 1.9,-2 2.4,-5.5 0.9,-7.9 -1.1,-1.7 -3.1,-2 -4.4,-1 -0.5,0 -0.9,0.2 -1.3,0.6 -1.7,2.2 -3.2,5 -1.7,7.7 0,0 0,0.1 0.1,0.1 -1.9,7.7 -10.2,10.6 -16.1,15.5 0.7,-3.5 1.4,-7 2,-10.5 0.3,-0.2 0.5,-0.4 0.8,-0.8 10.5,-15.9 9.1,-37.2 -1.7,-52.5 -1.1,-1.6 -3.1,-1.6 -4.2,0 -9.8,14.1 -9,33.3 1.3,46.7 -0.9,6.5 -2.1,13 -3.5,19.4 -1.1,-1.6 -2.5,-3 -3.8,-4.6 -3.7,-4.6 -5.9,-9.9 -6.7,-15.6 2.6,-1.2 4,-4.3 3.5,-7 -0.4,-2.4 -2.2,-4.2 -4.4,-4.9 -0.4,-0.4 -1,-0.6 -1.6,-0.4 -0.1,0 -0.3,0 -0.4,-0.1 -1.1,-0.1 -1.5,0.8 -1.4,1.7 -1.7,2 -2.8,4.7 -2.4,7.3 0.3,2.2 1.9,3.6 3.8,3.9 0.5,3.7 1.6,7.3 3.3,10.8 1.1,2.2 2.4,4.3 3.9,6.2 1.8,2.3 4.4,4.3 5.1,7.3 -1.8,7.3 -3.9,14.5 -6.4,21.6 -3.5,-10.9 -9,-21 -16.2,-30 -1.4,-1.8 -4.1,-0.2 -4.2,1.7 -0.7,10.8 -1.2,21.6 0.2,32.4 0.9,7.3 3.6,16.1 10.4,20 -2.7,5.7 -5.6,11.3 -8.7,16.8 -1.5,-1.9 -3.2,-3.7 -4.6,-5.7 -3,-4.3 -4.5,-9.2 -4.9,-14.4 0,-0.2 -0.1,-0.3 -0.1,-0.5 1.5,-2.3 1.8,-5.3 0.5,-7.6 0.1,-0.7 -0.1,-1.5 -1,-1.8 -2.8,-1 -6.1,-0.1 -7.8,2.5 -1.7,2.5 -1.3,6.2 0.9,8.3 1.4,1.3 3.2,1.5 4.7,0.9 0.4,4 1.5,7.8 3.4,11.4 1.9,3.6 4.9,6.4 7.2,9.7 -4.5,7.8 -9.5,15.3 -14.8,22.5 -0.7,-17.7 -7.3,-34.6 -18.8,-48.3 -1.2,-1.4 -3.7,-0.6 -4.1,1.1 -4.6,20 -9.7,49.5 10.2,62.9 -5.9,6.7 -12.1,13.1 -18.7,19.2 1.1,-10 -5.7,-19.5 -5.6,-29.8 0,0 0.1,0 0.1,0 4.8,-2 4,-11.4 -1.3,-11.1 -0.5,-0.2 -1.1,-0.2 -1.6,0.3 -2,1.9 -3.4,4.9 -2.7,7.7 0.3,1.5 1.3,2.7 2.6,3.2 0,11.2 9,22.3 4.8,33.1 -6.2,5.4 -12.7,10.5 -19.4,15.2 0.7,-22.3 -3.9,-44.4 -13.3,-64.7 -0.9,-2 -4,-1.3 -4.5,0.6 -6.3,23.3 -14.7,53.8 0.3,75.4 -9,5.4 -18.2,10.5 -27.6,15.4 1.6,-9.8 -2.6,-20.1 1.1,-29.5 0.6,0.1 1.4,0.2 2.2,0.1 3.6,-0.3 6.8,-3.4 7.1,-7 0.3,-3.8 -2.5,-7.3 -6.1,-8.1 -0.5,-0.1 -1,0 -1.3,0.3 -5.2,1.7 -7.7,9.9 -4.4,13.3 -4.2,10.6 1.1,21.9 -1.9,32.7 -3.2,1.7 -6.4,3.3 -9.6,5 -4.4,2.3 -8.8,4.5 -13.2,6.9 -0.6,0.2 -1.2,0.3 -1.8,0.5 1.8,-22.4 -0.6,-44.9 -6.9,-66.4 -0.6,-2.2 -3.3,-2.2 -4.5,-0.6 -17,22.6 -20.8,52.9 -8.4,78.4 -11.7,6.9 -23,14.3 -33.4,23 -1.6,-12.3 -1.6,-24.7 0.2,-37 3.3,-0.8 6.2,-4 6.6,-7.3 0.4,-4.1 -2.9,-7.8 -6.9,-7.1 -2.3,-0.2 -4.7,1.5 -5.5,4 -1.2,3.4 -1.4,9.2 2.9,10.4 -1.8,13.1 -1.8,26.2 0.1,39.3 -2,1.7 -3.9,3.4 -5.8,5.2 -3.3,3.2 -6.6,6.5 -9.7,9.9 -2.1,-29.2 -10.4,-57.3 -24,-83.3 -1,-1.9 -4,-1.4 -4.5,0.6 -7.7,30.7 -16.9,78.7 16.7,97.8 -10.8,15.9 -18,34.1 -19,53.7 -0.1,3.2 4.8,3.1 4.9,0 0.9,-19.7 7.6,-36.7 17.9,-51.5 2.9,7.6 10.2,12.3 17.9,14.6 12,3.5 25.5,4.3 37.9,4.6 22.7,0.7 46,-4 63.4,-19.3 1.5,-1.4 0.5,-3.5 -1.1,-4.1 -32.7,-13.5 -68.5,-18 -103.6,-13.2 6.7,-6.8 14.2,-13.1 22.1,-19 2.8,0.4 6.1,1.9 8.1,2.3 3,0.7 6.1,1.2 9.2,1.4 6.1,0.5 12.1,0 18.1,-1.2 0.4,1.7 1.1,3.3 2,4.5 2.8,3.4 8.5,2.4 11.4,-0.5 3,-3 2.5,-8.2 -0.5,-11 -2.6,-2.5 -6.2,-2.6 -9.3,-1.4 -0.3,-0.1 -0.6,0 -1,0.2 -0.4,0.2 -0.7,0.5 -1,0.8 -0.3,0.2 -0.7,0.4 -1,0.7 -0.6,0.5 -0.6,1.1 -0.3,1.6 -0.2,0.7 -0.4,1.4 -0.4,2.2 -9,1.9 -18.2,2 -27.1,-0.3 -1.5,-0.4 -3.2,-1 -5,-1.5 7.9,-5.7 16.1,-10.9 24.4,-15.8 34.1,8.4 69.3,8.1 103.5,-0.1 2,-0.5 2.5,-3.5 0.6,-4.5 -22.3,-11.1 -46.7,-16 -71,-13.4 0.4,-0.2 0.8,-0.4 1.2,-0.6 5.8,-3 11.6,-6 17.3,-9 11.2,1.7 21.5,9.9 32.8,6.3 0,0 0,0.1 0,0.1 1.5,3.5 5.8,3.2 8.4,1 2.5,-2.2 3.2,-6.1 1,-8.8 -2.1,-2.7 -6.1,-2.9 -8.5,-0.5 -0.2,0.2 -0.4,0.5 -0.4,0.7 -1.2,1.2 -1.5,3 -1.3,4.7 -9.3,3.2 -18.9,-2.8 -28.2,-5.5 5.1,-2.8 10.2,-5.7 15.3,-8.6 0.1,0 0.2,0.1 0.3,0.1 30.7,8.7 63.5,0.8 88.5,-18.4 1.7,-1.3 1.6,-3.8 -0.6,-4.5 -17.5,-5.9 -36.4,-6.1 -53.9,-0.9 2.4,-1.9 4.7,-3.9 7,-5.9 2.7,-2.4 5.3,-4.8 7.9,-7.3 3.9,-2.1 10.6,1 14.6,1.3 3.9,0.3 7.8,-0.1 11.6,-1 0,0 0,0.1 0,0.1 0.7,3 4.2,3.5 6.4,1.8 2.1,-1.6 3.1,-4.6 1.9,-6.9 -1.1,-2 -3.5,-2.9 -5.6,-2.1 -0.1,0 -0.1,0.1 -0.2,0.1 -0.1,0.1 -0.3,0.1 -0.4,0.2 -0.3,0.2 -0.4,0.4 -0.6,0.6 -0.8,0.8 -1.3,2 -1.5,3.2 -6.6,1.6 -12.6,1.2 -19.2,-0.4 -1.1,-0.3 -2.2,-0.5 -3.3,-0.6 3.9,-4 7.7,-8.1 11.4,-12.4 0.2,0.1 0.4,0.1 0.6,0.1 13.3,1.4 26.7,-0.6 39.1,-5.8 10.6,-4.4 23.4,-11.9 29.9,-21.8 2.5,-3.8 1.2,-7.9 -3.5,-8.7 -6,-1 -13.6,1 -19.4,2.2 -10.1,2.2 -19.8,5.8 -28.9,10.7 3.3,-4.9 6.5,-10 9.5,-15.1 8.5,-6.2 21.3,0 29.4,-7.2 0.2,0.1 0.3,0.3 0.5,0.4 3.3,2.1 7.9,0.7 9.9,-2.5 4.6,-7.7 -9.6,-13.7 -12.8,-5.2 -0.3,0.7 0,1.2 0.4,1.5 -0.3,1.2 -0.2,2.4 0.3,3.5 -5,4.9 -12.9,3.3 -19.3,3.8 -2,0.2 -4,0.5 -5.8,1.1 2.8,-5.1 5.4,-10.3 7.9,-15.5 20.6,-3.4 40.7,-22 46.3,-41.9 0.6,-3.5 1.8,-8.7 -3,-9.3 z m -4.8,-24.9 c -0.1,1 0.6,2 0.3,3.2 -0.2,0.8 -0.9,2.5 -2.1,2.2 -0.9,-0.3 -0.9,-1.6 -0.7,-2.3 0.2,-0.6 0.5,-1.2 0.8,-1.7 0.8,0 1.6,-0.5 1.7,-1.4 z m -40.5,-1.7 c 0.3,-1.4 1,-2.5 1.9,-3.5 2.4,1 3.4,4.4 1.3,6 -0.6,-1.1 -2.6,-1 -2.7,0.4 -0.6,-0.7 -0.7,-1.9 -0.5,-2.9 z m -27.2,70.7 c -1.4,-2.7 0.8,-5.2 3.4,-5.1 1.3,1.4 1.3,3.4 0.2,5.1 -1,1.5 -2.7,1.9 -3.6,0 z m -38,49.4 c -0.5,-0.5 -1.6,-0.4 -2.2,0.2 -0.4,-0.6 -0.4,-1.7 -0.2,-2.4 0.2,-1 0.7,-1.9 1.3,-2.6 1.9,-0.4 2.3,3.2 1.1,4.8 z m -58.5,36.9 c 4.3,1.6 4.6,8 -0.5,9.1 -0.9,0.2 -1.7,0.1 -2.2,-0.1 -0.2,-0.2 -0.3,-0.3 -0.6,-0.4 -2,-2 0.1,-7.7 3.3,-8.6 z m -88.6,45.9 c 0.1,-0.9 0.3,-1.9 0.6,-2.7 0.2,-0.4 0.7,-1.2 1.4,-1.6 0.3,0.1 0.6,0.2 1,0 0.2,-0.1 0.3,-0.1 0.5,-0.1 0.1,0.1 0.2,0.2 0.3,0.3 0.6,0.8 1.7,0.8 2.3,0.3 0.9,0.7 1.4,1.9 1.2,3.2 -0.2,2 -1.8,3.9 -3.7,4.6 -0.6,-0.8 -2,-0.9 -2.4,0 -1.1,-0.7 -1.3,-2.5 -1.2,-4 z M 487.2,493 c 12.2,25 19.4,51.8 20.7,79.7 0,0.2 0,0.4 0.1,0.6 -0.4,0.5 -0.7,0.9 -1.1,1.4 -9,-15.6 -17.8,-32.4 -15.7,-51 0.1,-0.6 -0.9,-0.6 -1,0 -2.2,18.9 6.9,36 16,51.8 -0.9,1.2 -1.8,2.4 -2.7,3.6 -29.4,-16.6 -23.1,-57.5 -16.3,-86.1 z m 130.1,91.2 c -15,11.6 -34.3,15.6 -53.1,15.5 -11,-0.1 -22.2,-1.2 -33.1,-2.9 -9.6,-1.6 -20.6,-5.2 -22.8,-16 0,-0.1 -0.1,-0.3 -0.1,-0.4 0.4,-0.5 0.8,-1 1.2,-1.5 17.5,5.8 36,8.2 54.5,7.1 0.6,0 0.6,-1 0,-1 -18.2,1.1 -36.5,-1.2 -53.8,-6.9 1.2,-1.5 2.4,-2.9 3.7,-4.3 34.8,-6.1 70.7,-2.3 103.5,10.4 z M 587,546.3 c 1.9,1.4 2.8,4.3 1.5,6.3 -1.2,2 -4.7,3.3 -6.9,2.1 -1.1,-0.6 -1.9,-2.5 -2.2,-4.4 0.2,-0.4 0.2,-1 -0.1,-1.4 0,-1.1 0.3,-2.1 0.8,-2.7 2.1,-1.1 4.9,-1.4 6.9,0.1 z m -13.3,-90.2 c 5.4,20.7 7.1,42 5,63.4 -1.5,0.8 -3,1.6 -4.5,2.5 -5.2,-15.1 -5.7,-31.4 -1.4,-46.8 0.2,-0.6 -0.8,-0.9 -0.9,-0.3 -4.4,15.6 -3.8,32.3 1.5,47.6 -1.6,0.9 -3.3,1.8 -4.9,2.8 -10.9,-22.6 -8.1,-48.6 5.2,-69.2 z m 90.2,71.5 c -29.5,6.1 -59.6,6.2 -89,-0.3 1.7,-1 3.4,-1.9 5.1,-2.8 17,6.2 35.2,3.2 52.5,0.1 0.6,-0.1 0.4,-1.1 -0.3,-0.9 -16.9,3 -34.5,5.9 -51.1,0.2 2.2,-1.2 4.4,-2.4 6.6,-3.6 25.7,-6.1 52,-3.1 76.2,7.3 z m -3.8,-24 c 1.1,1.4 0.8,3.4 -0.4,4.6 -1.1,1.2 -3.2,1.8 -4,0.2 0.8,-0.7 0.3,-1.9 -0.6,-2.3 -0.1,-0.8 0,-1.7 0.5,-2 0.4,-0.2 0.6,-0.6 0.6,-0.9 1.3,-1 3,-0.8 3.9,0.4 z m -18,-84.2 c 7.5,18.6 10.9,38.6 9.9,58.8 0,0.2 0,0.4 0,0.6 -1.6,1.1 -3.2,2.1 -4.9,3.2 -5.2,-12.6 -6.5,-26.4 -3.7,-39.8 0.1,-0.6 -0.8,-0.9 -0.9,-0.3 -2.8,13.6 -1.5,27.7 3.8,40.6 -0.9,0.6 -1.8,1.1 -2.7,1.7 -12.5,-18.6 -7,-43.9 -1.5,-64.8 z m 14.9,62 c 19.5,-11.3 42.8,-14.2 64.5,-8.3 -22.2,15.4 -49.8,22 -76.3,15.9 2,-1.2 4,-2.5 5.9,-3.7 7.6,1.4 15.7,-0.6 23.2,-1.8 9.2,-1.5 18.5,-3.2 27.5,-5.6 0.6,-0.2 0.4,-1.1 -0.3,-0.9 -8.4,2.3 -17,3.9 -25.6,5.3 -7.6,1.2 -15.9,3.4 -23.6,2.3 1.5,-1 2.9,-1.9 4.3,-2.9 0.1,-0.1 0.3,-0.2 0.4,-0.3 z m 63.4,-29 c 0.6,1 0,2.3 -0.7,3 -1,1 -2.2,0.9 -2.1,-0.6 0,-0.9 0.1,-2.6 1,-3.1 0,0 0,0 0,0 0.6,-0.2 1.4,0.1 1.8,0.7 z m 47.8,-61.9 c -0.9,1.6 -3.1,2.5 -4.8,2 -0.4,-0.1 -0.8,-0.3 -1.1,-0.5 0,0 0,0 0,0 0.8,-1 -0.2,-2.1 -1.2,-2.1 0,-0.8 0.2,-1.6 0.9,-2.2 0.6,-0.6 0.6,-1.3 0.2,-1.8 2.9,-1.6 8,1.2 6,4.6 z m -10,-121.1 c 6.7,11.4 8.1,25.5 3.1,37.6 -0.3,-9.3 -1.3,-18.6 -3,-27.8 -0.1,-0.6 -1.1,-0.4 -0.9,0.3 1.6,8.8 2.5,17.7 2.9,26.6 -7.7,-10.8 -8.3,-25.2 -2.1,-36.7 z m -27.8,83.3 c -0.4,-6.1 -0.2,-12.3 0.1,-18.4 5.8,8.5 10.1,17.9 12.7,28 0.1,0.4 0.3,0.7 0.5,0.9 -1,2.5 -2,5 -3,7.5 -4.4,-7 -6.7,-14.9 -6.7,-23.1 0,-0.6 -1,-0.6 -1,0 0,8.6 2.6,17 7.3,24.2 -0.5,1.2 -1,2.4 -1.6,3.6 -7.1,-4.6 -7.8,-15.3 -8.3,-22.7 z M 692.3,381 c 10,13.7 15,30.3 14.4,47.3 -0.7,0.9 -1.4,1.8 -2.2,2.7 -6.9,-10.1 -10.1,-22.1 -9.2,-34.3 0,-0.6 -0.9,-0.6 -1,0 -0.9,12.4 2.5,24.8 9.6,35.1 -0.6,0.7 -1.2,1.4 -1.7,2.1 C 685.3,423 688.5,398.8 692.3,381 Z m 52,31.3 c 5.7,-1.6 11.5,-2.8 17.4,-3.5 1.2,-0.1 7.4,-1.5 7.8,0.3 0.2,1.1 -4.9,5.3 -5.8,6.1 -15.1,14.1 -35.8,21.1 -56.3,19.9 0.8,-1 1.6,-1.9 2.4,-2.9 15.8,-2.5 30.9,-8 44.6,-16.2 0.5,-0.3 0,-1.2 -0.5,-0.8 -13.3,7.9 -28,13.3 -43.2,15.9 1.2,-1.5 2.4,-3.1 3.6,-4.6 9.3,-6.2 19.3,-11 30,-14.2 z m 38.2,-73 c -0.7,2.1 -1.6,4.2 -2.6,6.2 -7.1,13.8 -20.8,26.2 -36.1,30.2 1.3,-3 2.5,-5.9 3.7,-8.9 10.5,-4.9 19.8,-12.1 27.3,-21 0.4,-0.5 -0.3,-1.2 -0.7,-0.7 -7.2,8.6 -16.1,15.5 -26.1,20.4 0.1,-0.3 0.2,-0.6 0.3,-0.9 0.5,-0.2 0.9,-0.5 1.3,-1 5.3,-8.1 12,-15.2 20,-20.7 3.7,-2.6 7.7,-4.8 11.9,-6.6 0.7,-0.3 1.5,-0.6 2.2,-0.9 -0.1,0.3 -0.2,0.6 -0.4,0.9 0.2,0.8 -0.5,2.2 -0.8,3 z"
       id="path32"
       style="fill:#fafafa;fill-opacity:1" />
    <path
       class="st2"
       d="m 734.8,297.6 c 0.6,0.1 0.9,-0.8 0.3,-0.9 -0.4,-0.1 -0.7,-0.3 -0.9,-0.6 -0.3,-0.5 -1.2,0 -0.8,0.5 0.3,0.5 0.8,0.8 1.4,1 z"
       id="path34"
       style="fill:#fafafa;fill-opacity:1" />
    <path
       class="st2"
       d="m 737.5,295.5 c -0.2,-0.5 -0.3,-0.9 -0.2,-1.5 0,-0.6 -0.9,-0.6 -1,0 0,0.6 0,1.2 0.3,1.7 0.2,0.7 1.1,0.4 0.9,-0.2 z"
       id="path36"
       style="fill:#fafafa;fill-opacity:1" />
    <path
       class="st2"
       d="m 740.6,293.6 c 0,-0.5 -0.1,-1 -0.1,-1.5 -0.1,-0.6 -1,-0.6 -1,0 0,0.5 0.1,1 0.1,1.5 0.1,0.7 1.1,0.7 1,0 z"
       id="path38"
       style="fill:#fafafa;fill-opacity:1" />
    <path
       class="st2"
       d="m 744.7,294.3 c 0.1,-0.9 0.2,-1.8 0.1,-2.6 0,-0.6 -1,-0.6 -1,0 0,0.8 0,1.6 -0.1,2.4 0,0.5 0.9,0.8 1,0.2 z"
       id="path40"
       style="fill:#fafafa;fill-opacity:1" />
    <path
       class="st2"
       d="m 779.6,298.1 c -0.3,-0.8 -0.4,-1.7 -0.3,-2.6 0.1,-0.6 -0.9,-0.6 -1,0 -0.1,1 0,1.9 0.4,2.8 0.1,0.7 1.1,0.4 0.9,-0.2 z"
       id="path42"
       style="fill:#fafafa;fill-opacity:1" />
    <path
       class="st2"
       d="m 784,298 c 0.1,-0.9 0.3,-1.7 0.4,-2.6 0.1,-0.6 -0.9,-0.9 -0.9,-0.3 -0.1,0.9 -0.3,1.7 -0.4,2.6 -0.1,0.7 0.8,0.9 0.9,0.3 z"
       id="path44"
       style="fill:#fafafa;fill-opacity:1" />
    <path
       class="st2"
       d="m 786.9,301.3 c 0.7,-0.6 1.5,-1 2.5,-1.3 0.6,-0.2 0.4,-1.1 -0.3,-0.9 -1.1,0.3 -2.1,0.8 -2.9,1.5 -0.4,0.4 0.3,1.1 0.7,0.7 z"
       id="path46"
       style="fill:#fafafa;fill-opacity:1" />
    <path
       class="st2"
       d="m 789.5,303.4 c -0.7,0.5 -1.5,1.1 -2.2,1.6 -0.5,0.4 0,1.2 0.5,0.8 0.7,-0.5 1.5,-1.1 2.2,-1.6 0.5,-0.4 0.1,-1.2 -0.5,-0.8 z"
       id="path48"
       style="fill:#fafafa;fill-opacity:1" />
    <path
       class="st2"
       d="m 705.1,363.9 c 0.5,0.4 1.2,-0.3 0.7,-0.7 -0.8,-0.8 -1.6,-1.5 -2.5,-2.3 -0.5,-0.4 -1.2,0.3 -0.7,0.7 0.9,0.8 1.7,1.5 2.5,2.3 z"
       id="path50"
       style="fill:#fafafa;fill-opacity:1" />
    <path
       class="st2"
       d="m 708.9,360.9 c 0,-0.7 0,-1.3 0,-2 0,-0.6 -1,-0.6 -1,0 0,0.7 0,1.3 0,2 0,0.7 1,0.7 1,0 z"
       id="path52"
       style="fill:#fafafa;fill-opacity:1" />
    <path
       class="st2"
       d="m 712.5,360.1 c 0.1,-0.8 0.2,-1.5 0.3,-2.3 0.1,-0.6 -0.9,-0.9 -0.9,-0.3 -0.1,0.8 -0.2,1.5 -0.3,2.3 -0.1,0.7 0.8,0.9 0.9,0.3 z"
       id="path54"
       style="fill:#fafafa;fill-opacity:1" />
    <path
       class="st2"
       d="m 716.4,360.6 c 0.1,-0.5 0.2,-1 0.3,-1.5 0.1,-0.6 -0.8,-0.9 -0.9,-0.3 -0.1,0.5 -0.2,1 -0.3,1.5 -0.2,0.6 0.7,0.9 0.9,0.3 z"
       id="path56"
       style="fill:#fafafa;fill-opacity:1" />
    <path
       class="st2"
       d="m 764.4,376.3 c -0.1,0.9 -0.1,1.9 -0.2,2.8 0,0.6 0.9,0.6 1,0 0.1,-0.9 0.1,-1.9 0.2,-2.8 0,-0.6 -1,-0.6 -1,0 z"
       id="path58"
       style="fill:#fafafa;fill-opacity:1" />
    <path
       class="st2"
       d="m 769.9,376.9 c -0.3,0.9 -0.7,1.7 -1,2.6 -0.2,0.6 0.7,0.8 0.9,0.3 0.3,-0.9 0.7,-1.7 1,-2.6 0.3,-0.7 -0.7,-0.9 -0.9,-0.3 z"
       id="path60"
       style="fill:#fafafa;fill-opacity:1" />
    <path
       class="st2"
       d="m 775.5,380.7 c -0.5,0.6 -1.1,1.1 -1.6,1.7 -0.4,0.5 0.3,1.1 0.7,0.7 0.5,-0.6 1.1,-1.1 1.6,-1.7 0.4,-0.5 -0.3,-1.2 -0.7,-0.7 z"
       id="path62"
       style="fill:#fafafa;fill-opacity:1" />
    <path
       class="st2"
       d="m 778.4,386.6 c -1.1,0.3 -2.2,0.6 -3.3,0.9 -0.6,0.2 -0.3,1.1 0.3,0.9 1.1,-0.3 2.2,-0.6 3.3,-0.9 0.5,-0.1 0.3,-1.1 -0.3,-0.9 z"
       id="path64"
       style="fill:#fafafa;fill-opacity:1" />
    <path
       class="st2"
       d="m 664.9,416.1 c 0.4,0.4 1.1,-0.2 0.7,-0.7 -0.4,-0.4 -0.9,-0.9 -1.3,-1.3 -0.4,-0.4 -1.1,0.2 -0.7,0.7 0.4,0.4 0.9,0.9 1.3,1.3 z"
       id="path66"
       style="fill:#fafafa;fill-opacity:1" />
    <path
       class="st2"
       d="m 667.8,412.2 c 0.4,0.5 1.2,0 0.8,-0.5 -0.4,-0.7 -0.9,-1.3 -1.3,-2 -0.4,-0.5 -1.2,0 -0.8,0.5 0.4,0.7 0.8,1.4 1.3,2 z"
       id="path68"
       style="fill:#fafafa;fill-opacity:1" />
    <path
       class="st2"
       d="m 673.2,411.4 c 0,-1.1 -0.1,-2.1 -0.1,-3.2 0,-0.6 -1,-0.6 -1,0 0,1.1 0.1,2.1 0.1,3.2 0.1,0.6 1.1,0.6 1,0 z"
       id="path70"
       style="fill:#fafafa;fill-opacity:1" />
    <path
       class="st2"
       d="m 677.1,414.2 c 0.3,-0.8 0.7,-1.6 1,-2.4 0.2,-0.6 -0.7,-0.8 -0.9,-0.3 -0.3,0.8 -0.7,1.6 -1,2.4 -0.3,0.6 0.7,0.9 0.9,0.3 z"
       id="path72"
       style="fill:#fafafa;fill-opacity:1" />
    <path
       class="st2"
       d="m 724.4,444.8 c -0.4,0.6 -0.9,1 -1.6,1.4 -0.6,0.3 -0.1,1.1 0.5,0.8 0.8,-0.4 1.4,-1 1.9,-1.7 0.4,-0.5 -0.4,-1 -0.8,-0.5 z"
       id="path74"
       style="fill:#fafafa;fill-opacity:1" />
    <path
       class="st2"
       d="m 725.2,450 c 0.8,-0.2 1.6,-0.5 2.3,-0.7 0.6,-0.2 0.3,-1.1 -0.3,-0.9 -0.8,0.2 -1.6,0.5 -2.3,0.7 -0.6,0.2 -0.3,1.1 0.3,0.9 z"
       id="path76"
       style="fill:#fafafa;fill-opacity:1" />
    <path
       class="st2"
       d="m 728.6,452.2 c -0.8,0 -1.6,0.2 -2.3,0.7 -0.5,0.4 0,1.2 0.5,0.8 0.6,-0.4 1.2,-0.6 1.8,-0.6 0.6,0 0.6,-0.9 0,-0.9 z"
       id="path78"
       style="fill:#fafafa;fill-opacity:1" />
    <path
       class="st2"
       d="m 724.2,460 c 0.9,0.1 1.8,0.3 2.7,0.4 0.6,0.1 0.9,-0.9 0.3,-0.9 -0.9,-0.1 -1.8,-0.3 -2.7,-0.4 -0.7,-0.1 -0.9,0.8 -0.3,0.9 z"
       id="path80"
       style="fill:#fafafa;fill-opacity:1" />
    <path
       class="st2"
       d="m 604.9,450.3 c 0.3,0.6 1.1,0.1 0.8,-0.5 -0.6,-1.1 -1.2,-2.3 -1.8,-3.4 -0.3,-0.6 -1.1,-0.1 -0.8,0.5 0.6,1.1 1.2,2.2 1.8,3.4 z"
       id="path82"
       style="fill:#fafafa;fill-opacity:1" />
    <path
       class="st2"
       d="m 612.9,448.5 c 0.1,-1 0.1,-2.1 0.2,-3.1 0,-0.6 -0.9,-0.6 -1,0 -0.1,1 -0.1,2.1 -0.2,3.1 0,0.7 1,0.7 1,0 z"
       id="path84"
       style="fill:#fafafa;fill-opacity:1" />
    <path
       class="st2"
       d="m 618.7,449.3 c 0.4,-1.1 0.5,-2.2 0.5,-3.4 0,-0.6 -1,-0.6 -1,0 0,1.1 -0.1,2.1 -0.5,3.1 -0.2,0.7 0.8,0.9 1,0.3 z"
       id="path86"
       style="fill:#fafafa;fill-opacity:1" />
    <path
       class="st2"
       d="m 599.8,454.5 c 0.9,0.4 1.7,0.8 2.6,1.1 0.6,0.3 1.1,-0.6 0.5,-0.8 -0.9,-0.4 -1.7,-0.8 -2.6,-1.1 -0.6,-0.3 -1.1,0.6 -0.5,0.8 z"
       id="path88"
       style="fill:#fafafa;fill-opacity:1" />
    <path
       class="st2"
       d="m 671.3,501.1 c 0.6,-0.2 0.3,-1.2 -0.3,-0.9 -1.3,0.5 -2.5,1 -3.8,1.4 -0.6,0.2 -0.3,1.2 0.3,0.9 1.3,-0.5 2.5,-1 3.8,-1.4 z"
       id="path90"
       style="fill:#fafafa;fill-opacity:1" />
    <path
       class="st2"
       d="m 673.4,505.1 c -1.3,-0.1 -2.6,0.2 -3.9,0.6 -0.6,0.2 -0.3,1.2 0.3,0.9 1.2,-0.5 2.4,-0.7 3.6,-0.6 0.7,0.1 0.7,-0.9 0,-0.9 z"
       id="path92"
       style="fill:#fafafa;fill-opacity:1" />
    <path
       class="st2"
       d="m 667.8,511.2 c 1.3,0.4 2.6,0.8 3.9,1.3 0.6,0.2 0.9,-0.8 0.3,-0.9 -1.3,-0.4 -2.6,-0.8 -3.9,-1.3 -0.7,-0.2 -0.9,0.7 -0.3,0.9 z"
       id="path94"
       style="fill:#fafafa;fill-opacity:1" />
    <path
       class="st2"
       d="m 664.3,514.8 c 0.4,0.9 0.9,1.9 1.3,2.8 0.3,0.6 1.1,0.1 0.8,-0.5 -0.4,-0.9 -0.9,-1.9 -1.3,-2.8 -0.2,-0.6 -1,-0.1 -0.8,0.5 z"
       id="path96"
       style="fill:#fafafa;fill-opacity:1" />
    <path
       class="st2"
       d="m 519.1,499.2 c 0.5,0.4 1.2,-0.3 0.7,-0.7 -0.6,-0.5 -1.2,-1 -1.8,-1.5 -0.5,-0.4 -1.2,0.3 -0.7,0.7 0.6,0.5 1.2,1 1.8,1.5 z"
       id="path98"
       style="fill:#fafafa;fill-opacity:1" />
    <path
       class="st2"
       d="m 523.3,494.3 c 0.1,0.6 1.1,0.4 0.9,-0.3 -0.2,-0.7 -0.3,-1.4 -0.5,-2.1 -0.1,-0.6 -1.1,-0.4 -0.9,0.3 0.1,0.6 0.3,1.3 0.5,2.1 z"
       id="path100"
       style="fill:#fafafa;fill-opacity:1" />
    <path
       class="st2"
       d="m 529.6,493.6 c -0.1,-1.2 -0.2,-2.4 -0.3,-3.6 0,-0.6 -1,-0.6 -1,0 0.1,1.2 0.2,2.4 0.3,3.6 0.1,0.7 1.1,0.7 1,0 z"
       id="path102"
       style="fill:#fafafa;fill-opacity:1" />
    <path
       class="st2"
       d="m 536.7,494.2 c 0.5,-1 0.7,-2 0.8,-3 0,-0.6 -0.9,-0.6 -1,0 -0.1,0.9 -0.3,1.7 -0.6,2.5 -0.3,0.6 0.5,1.1 0.8,0.5 z"
       id="path104"
       style="fill:#fafafa;fill-opacity:1" />
    <path
       class="st2"
       d="m 540.1,499.4 c 0.8,-0.8 1.5,-1.5 2.3,-2.3 0.4,-0.4 -0.2,-1.1 -0.7,-0.7 -0.8,0.8 -1.5,1.5 -2.3,2.3 -0.5,0.4 0.2,1.1 0.7,0.7 z"
       id="path106"
       style="fill:#fafafa;fill-opacity:1" />
    <path
       class="st2"
       d="m 585.4,561.6 c 0.3,1 0.7,2.1 1,3.1 0.2,0.6 1.1,0.3 0.9,-0.3 -0.3,-1 -0.7,-2.1 -1,-3.1 -0.1,-0.5 -1.1,-0.3 -0.9,0.3 z"
       id="path108"
       style="fill:#fafafa;fill-opacity:1" />
    <path
       class="st2"
       d="m 592.6,559.8 c -0.4,-0.5 -1.1,0.2 -0.7,0.7 0.4,0.5 0.9,1 1.3,1.5 0.4,0.5 1.1,-0.2 0.7,-0.7 -0.5,-0.5 -0.9,-1 -1.3,-1.5 z"
       id="path110"
       style="fill:#fafafa;fill-opacity:1" />
    <path
       class="st2"
       d="m 595.3,555.7 c 0.8,0 1.5,0 2.3,0 0.6,0 0.6,-1 0,-1 -0.8,0 -1.5,0 -2.3,0 -0.6,0 -0.6,1 0,1 z"
       id="path112"
       style="fill:#fafafa;fill-opacity:1" />
    <path
       class="st2"
       d="m 597.1,544.8 c 0.6,-0.2 0.3,-1.2 -0.3,-0.9 -1,0.4 -2,0.8 -2.9,1.2 -0.6,0.2 -0.3,1.2 0.3,0.9 0.9,-0.4 1.9,-0.8 2.9,-1.2 z"
       id="path114"
       style="fill:#fafafa;fill-opacity:1" />
  </g>
  <path
     class="st2"
     d="m 193.30565,126.09913 c -2.13206,-1.84396 -4.32176,-3.74553 -6.45382,-5.58948 1.44058,0 2.82355,-0.0576 4.26413,-0.0576 0.9796,0 0.9796,-1.49822 0,-1.49822 -1.44058,0 -2.88117,0.0576 -4.32176,0.0576 2.07445,-2.18969 3.86077,-4.55226 5.41661,-7.20294 0.51861,-0.80672 -0.80673,-1.55583 -1.26772,-0.7491 -1.38296,2.36256 -2.99642,4.55225 -4.84037,6.51145 -0.11525,-1.90157 -0.23049,-3.74552 -0.34574,-5.6471 -0.0576,-0.9796 -1.55583,-0.9796 -1.49821,0 0.11525,2.18969 0.28812,4.43701 0.40336,6.6267 -1.95919,-1.7287 -3.97602,-3.45741 -5.93521,-5.18611 -0.69149,-0.63386 -1.78633,0.40336 -1.03723,1.03722 1.78633,1.55583 3.51504,3.05404 5.30136,4.60988 -3.22691,0.0576 -6.45383,0.11525 -9.68074,0.17287 -0.9796,0 -0.9796,1.49821 0,1.49821 3.28454,-0.0576 6.56908,-0.11525 9.85361,-0.17287 -0.86435,0.7491 -1.78632,1.49821 -2.76592,2.18969 -0.74911,0.57624 0,1.84395 0.7491,1.26772 1.32534,-0.9796 2.53543,-2.01682 3.74553,-3.11167 0.17287,3.28454 0.40336,6.56908 0.57623,9.85361 0.0576,0.9796 1.55584,0.9796 1.49821,0 -0.17287,-2.93879 -0.34574,-5.81997 -0.51861,-8.75876 1.9592,1.7287 3.9184,3.39978 5.8776,5.12848 0.69148,0.69149 1.7287,-0.34574 0.97959,-0.97959 z"
     id="path118"
     style="fill:#fafafa;fill-opacity:1;stroke-width:0.576235" />
  <path
     class="st2"
     d="M 321.15247,99.05402 C 320,98.07442 318.84753,97.09483 317.75269,96.0576 c 0.7491,0 1.49821,0 2.24731,-0.0576 0.51861,0 0.51861,-0.80673 0,-0.80673 -0.7491,0 -1.49821,0 -2.30494,0.0576 1.09485,-1.15247 2.07445,-2.42018 2.88118,-3.80315 0.28811,-0.46098 -0.40337,-0.80672 -0.69149,-0.40336 -0.7491,1.26772 -1.61345,2.42019 -2.53543,3.45741 -0.0576,-0.9796 -0.11525,-2.01682 -0.17287,-2.99642 -0.0576,-0.51861 -0.80673,-0.51861 -0.80673,0 0.0576,1.15247 0.11525,2.36256 0.2305,3.51503 -1.03723,-0.92198 -2.13207,-1.84395 -3.16929,-2.76593 -0.40337,-0.34574 -0.92198,0.2305 -0.57624,0.57624 0.92198,0.80673 1.84395,1.61346 2.82355,2.42018 -1.7287,0.0576 -3.45741,0.0576 -5.12849,0.11525 -0.51861,0 -0.51861,0.80673 0,0.80673 1.72871,-0.0576 3.45741,-0.0576 5.18611,-0.11525 -0.46098,0.40337 -0.92197,0.80673 -1.44058,1.15247 -0.40337,0.28812 0,0.9796 0.40336,0.69148 0.69148,-0.51861 1.32534,-1.03722 1.9592,-1.61345 0.11525,1.7287 0.23049,3.4574 0.28812,5.24373 0.0576,0.51861 0.80673,0.51861 0.80673,0 -0.11525,-1.55583 -0.17287,-3.11167 -0.28812,-4.6675 1.03722,0.92198 2.07444,1.78633 3.11167,2.7083 0.40336,0.34575 0.9796,-0.17287 0.57623,-0.51861 z"
     id="path120"
     style="fill:#fafafa;fill-opacity:1;stroke-width:0.576235" />
  <path
     class="st2"
     d="m 172.50358,200.08766 c -1.15247,-0.9796 -2.30494,-1.95919 -3.39978,-2.99642 0.7491,0 1.49821,0 2.24731,-0.0576 0.51861,0 0.51861,-0.80673 0,-0.80673 -0.7491,0 -1.49821,0 -2.30494,0.0576 1.09485,-1.15247 2.07445,-2.42018 2.88118,-3.80314 0.28811,-0.46099 -0.40337,-0.80673 -0.69149,-0.40337 -0.7491,1.26772 -1.61345,2.42019 -2.53543,3.45741 -0.0576,-0.9796 -0.11525,-2.01682 -0.17287,-2.99642 -0.0576,-0.51861 -0.80673,-0.51861 -0.80673,0 0.0576,1.15247 0.11525,2.36256 0.2305,3.51503 -1.03723,-0.92198 -2.13207,-1.84395 -3.16929,-2.76593 -0.40337,-0.34574 -0.92198,0.2305 -0.57624,0.57624 0.92198,0.80673 1.84395,1.61346 2.82355,2.42018 -1.7287,0.0576 -3.45741,0.0576 -5.12849,0.11525 -0.51861,0 -0.51861,0.80673 0,0.80673 1.72871,-0.0576 3.45741,-0.0576 5.18611,-0.11525 -0.46098,0.40337 -0.92197,0.80673 -1.44058,1.15247 -0.40337,0.28812 0,0.9796 0.40336,0.69148 0.69148,-0.51861 1.32534,-1.03722 1.9592,-1.61345 0.11525,1.7287 0.23049,3.4574 0.28812,5.24373 0.0576,0.51861 0.80673,0.51861 0.80673,0 -0.11525,-1.55583 -0.17287,-3.11166 -0.28812,-4.6675 1.03722,0.92198 2.07444,1.78633 3.11167,2.7083 0.40336,0.40337 0.9796,-0.17287 0.57623,-0.51861 z"
     id="path122"
     style="fill:#fafafa;fill-opacity:1;stroke-width:0.576235" />
  <path
     class="st4"
     d="m 235.14029,154.91086 c -1.15246,-0.9796 -2.30493,-1.9592 -3.39978,-2.99642 0.74911,0 1.49821,0 2.24732,-0.0576 0.51861,0 0.51861,-0.80673 0,-0.80673 -0.74911,0 -1.49821,0 -2.30494,0.0576 1.09484,-1.15247 2.07444,-2.42018 2.88117,-3.80315 0.28812,-0.46098 -0.40336,-0.80673 -0.69148,-0.40336 -0.74911,1.26772 -1.61346,2.42018 -2.53543,3.45741 -0.0576,-0.9796 -0.11525,-2.01682 -0.17287,-2.99642 -0.0576,-0.51861 -0.80673,-0.51861 -0.80673,0 0.0576,1.15247 0.11524,2.36256 0.23049,3.51503 -1.03722,-0.92198 -2.13207,-1.84395 -3.16929,-2.76593 -0.40336,-0.34574 -0.92198,0.2305 -0.57624,0.57624 0.92198,0.80672 1.84396,1.61345 2.82356,2.42018 -1.72871,0.0576 -3.45741,0.0576 -5.12849,0.11525 -0.51862,0 -0.51862,0.80673 0,0.80673 1.7287,-0.0576 3.4574,-0.0576 5.18611,-0.11525 -0.46099,0.40337 -0.92198,0.80673 -1.44059,1.15247 -0.40336,0.28812 0,0.9796 0.40337,0.69148 0.69148,-0.51861 1.32534,-1.03722 1.95919,-1.61346 0.11525,1.72871 0.2305,3.45741 0.28812,5.24374 0.0576,0.51861 0.80673,0.51861 0.80673,0 -0.11525,-1.55583 -0.17287,-3.11167 -0.28812,-4.6675 1.03723,0.92197 2.07445,1.78633 3.11167,2.7083 0.34574,0.34574 0.92198,-0.23049 0.57623,-0.51861 z"
     id="path124"
     style="fill:#fafafa;fill-opacity:1;stroke-width:0.576235" />
  <path
     class="st4"
     d="m 329.81566,269.4087 c -1.15247,-0.9796 -2.30494,-1.9592 -3.39979,-2.99642 0.74911,0 1.49821,0 2.24732,-0.0576 0.51861,0 0.51861,-0.80673 0,-0.80673 -0.74911,0 -1.49821,0 -2.30494,0.0576 1.09485,-1.15247 2.07445,-2.42018 2.88117,-3.80315 0.28812,-0.46099 -0.40336,-0.80673 -0.69148,-0.40336 -0.7491,1.26771 -1.61345,2.42018 -2.53543,3.45741 -0.0576,-0.9796 -0.11525,-2.01683 -0.17287,-2.99642 -0.0576,-0.51862 -0.80673,-0.51862 -0.80673,0 0.0576,1.15246 0.11525,2.36256 0.2305,3.51503 -1.03723,-0.92198 -2.13207,-1.84395 -3.1693,-2.76593 -0.40336,-0.34574 -0.92197,0.23049 -0.57623,0.57624 0.92198,0.80672 1.84395,1.61345 2.82355,2.42018 -1.7287,0.0576 -3.45741,0.0576 -5.12849,0.11525 -0.51861,0 -0.51861,0.80673 0,0.80673 1.7287,-0.0576 3.45741,-0.0576 5.18611,-0.11525 -0.46098,0.40336 -0.92197,0.80673 -1.44058,1.15247 -0.40337,0.28812 0,0.9796 0.40336,0.69148 0.69148,-0.51861 1.32534,-1.03722 1.9592,-1.61346 0.11525,1.72871 0.23049,3.45741 0.28812,5.24374 0.0576,0.51861 0.80672,0.51861 0.80672,0 -0.11524,-1.55583 -0.17287,-3.11167 -0.28811,-4.6675 1.03722,0.92197 2.07444,1.78633 3.11166,2.7083 0.40337,0.40337 0.9796,-0.17287 0.57624,-0.51861 z"
     id="path126"
     style="fill:#fafafa;fill-opacity:1;stroke-width:0.576235" />
  <path
     class="st2"
     d="m 314.14208,313.37541 c -1.15247,-0.9796 -2.30494,-1.9592 -3.39979,-2.99642 0.74911,0 1.49821,0 2.24732,-0.0576 0.51861,0 0.51861,-0.80673 0,-0.80673 -0.74911,0 -1.49821,0 -2.30494,0.0576 1.09484,-1.15247 2.07444,-2.42019 2.88117,-3.80315 0.28812,-0.46099 -0.40336,-0.80673 -0.69148,-0.40336 -0.74911,1.26771 -1.61346,2.42018 -2.53543,3.4574 -0.0576,-0.97959 -0.11525,-2.01682 -0.17287,-2.99642 -0.0576,-0.51861 -0.80673,-0.51861 -0.80673,0 0.0576,1.15247 0.11524,2.36257 0.23049,3.51504 -1.03722,-0.92198 -2.13207,-1.84395 -3.16929,-2.76593 -0.40336,-0.34574 -0.92198,0.23049 -0.57623,0.57623 0.92197,0.80673 1.84395,1.61346 2.82355,2.42019 -1.72871,0.0576 -3.45741,0.0576 -5.12849,0.11525 -0.51862,0 -0.51862,0.80673 0,0.80673 1.7287,-0.0576 3.4574,-0.0576 5.18611,-0.11525 -0.46099,0.40336 -0.92198,0.80673 -1.44059,1.15247 -0.40336,0.28812 0,0.9796 0.40337,0.69148 0.69148,-0.51861 1.32534,-1.03722 1.95919,-1.61346 0.11525,1.72871 0.2305,3.45741 0.28812,5.24374 0.0576,0.51861 0.80673,0.51861 0.80673,0 -0.11525,-1.55584 -0.17287,-3.11167 -0.28812,-4.6675 1.03723,0.92197 2.07445,1.78632 3.11167,2.7083 0.40336,0.34574 0.9796,-0.17287 0.57624,-0.51861 z"
     id="path128"
     style="fill:#fafafa;fill-opacity:1;stroke-width:0.576235" />
  <path
     class="st2"
     d="m 378.10413,228.43841 c -2.13207,-1.84395 -4.32176,-3.74552 -6.45383,-5.58948 1.44059,0 2.82355,-0.0576 4.26414,-0.0576 0.9796,0 0.9796,-1.49821 0,-1.49821 -1.44059,0 -2.88118,0.0576 -4.32176,0.0576 2.07444,-2.18969 3.86077,-4.55225 5.4166,-7.20293 0.51861,-0.80673 -0.80673,-1.55583 -1.26771,-0.7491 -1.38297,2.36256 -2.99642,4.55225 -4.84038,6.51145 -0.11524,-1.90158 -0.23049,-3.74553 -0.34574,-5.6471 -0.0576,-0.9796 -1.55583,-0.9796 -1.49821,0 0.11525,2.18969 0.28812,4.437 0.40337,6.6267 -1.9592,-1.72871 -3.97602,-3.45741 -5.93522,-5.18612 -0.69148,-0.63385 -1.78633,0.40337 -1.03722,1.03723 1.78633,1.55583 3.51503,3.05404 5.30136,4.60987 -3.22692,0.0576 -6.45383,0.11525 -9.68075,0.17287 -0.97959,0 -0.97959,1.49822 0,1.49822 3.28454,-0.0576 6.56908,-0.11525 9.85362,-0.17288 -0.86435,0.74911 -1.78633,1.49822 -2.76593,2.1897 -0.7491,0.57623 0,1.84395 0.74911,1.26771 1.32534,-0.9796 2.53543,-2.01682 3.74552,-3.11166 0.17287,3.28453 0.40337,6.56907 0.57624,9.85361 0.0576,0.9796 1.55583,0.9796 1.49821,0 -0.17287,-2.9388 -0.34574,-5.81997 -0.51861,-8.75877 1.95919,1.72871 3.91839,3.39979 5.87759,5.12849 0.69148,0.69148 1.7287,-0.34574 0.9796,-0.9796 z"
     id="path130"
     style="fill:#fafafa;fill-opacity:1;stroke-width:0.576235" />
  <path
     id="rect136"
     style="fill:#ffaa00;stroke-width:0.372387"
     class="st2"
     d="m 112,448 h 288 c 0,0 0,0 0,16 0,7.54247 -8.45753,16 -16,16 -96,0 -176,0 -256,0 -7.54247,0 -16,-8.45753 -16,-16 0,-16 0,-16 0,-16 z"
     sodipodi:nodetypes="ccssssc" />
  <text
     xml:space="preserve"
     style="font-style:normal;font-variant:normal;font-weight:900;font-stretch:normal;font-size:138.296px;line-height:1.25;font-family:Barlow;-inkscape-font-specification:'Barlow Heavy';fill:#ffffff;fill-opacity:1;stroke-width:0.576235"
     x="129.7001"
     y="431.58145"
     id="text3221"><tspan
       sodipodi:role="line"
       id="tspan3219"
       x="129.7001"
       y="431.58145"
       style="stroke-width:0.576235">TAG</tspan></text>
  <path
     id="path1505"
     style="fill:#ffaa00;fill-opacity:1;stroke:none;stroke-width:4;stroke-linecap:round;stroke-linejoin:round;stop-color:#000000"
     d="M 256 48 A 48 48 0 0 0 208 96 A 48 48 0 0 0 256 144 A 48 48 0 0 0 304 96 A 48 48 0 0 0 256 48 z M 256 64 A 32 32 0 0 1 288 96 A 32 32 0 0 1 256 128 A 32 32 0 0 1 224 96 A 32 32 0 0 1 256 64 z " />
</svg>
